<svg width="83" height="23" viewBox="0 0 83 23" fill="none" xmlns="http://www.w3.org/2000/svg">
<path d="M12.6517 0.337978C6.5657 0.0929165 1.43729 4.89203 1.19539 11.0574C0.953483 17.2227 5.69182 22.418 11.7768 22.663C17.8627 22.9081 22.9911 18.109 23.233 11.9437C23.4739 5.77833 18.7366 0.582018 12.6517 0.337978ZM17.3063 16.704C17.1693 16.949 16.9021 17.0716 16.6421 17.0348C16.5625 17.0236 16.4828 16.997 16.4083 16.9541C14.9508 16.1138 13.3623 15.5665 11.6871 15.3275C10.0119 15.0886 8.33565 15.1713 6.70581 15.5726C6.35202 15.6594 5.99622 15.4399 5.91054 15.0815C5.82487 14.7231 6.04157 14.3626 6.39536 14.2758C8.18748 13.8347 10.03 13.7438 11.8705 14.0063C13.711 14.2687 15.4568 14.8701 17.0604 15.7942C17.3759 15.977 17.4868 16.3833 17.3073 16.704H17.3063ZM18.7558 13.7714C18.531 14.1921 18.0109 14.3493 17.5956 14.1216C15.8902 13.1873 14.0436 12.5737 12.1074 12.298C10.1711 12.0223 8.22982 12.0968 6.33589 12.5185C6.23308 12.541 6.13128 12.5451 6.0325 12.5308C5.68879 12.4818 5.39448 12.2224 5.31586 11.8579C5.21405 11.3902 5.50636 10.9277 5.96799 10.8245C8.06149 10.3579 10.2074 10.2752 12.3463 10.5795C14.4841 10.8838 16.5252 11.5618 18.41 12.5951C18.8263 12.8228 18.9805 13.3487 18.7558 13.7704V13.7714ZM20.3624 10.4651C20.1507 10.8776 19.7103 11.0911 19.2809 11.0298C19.165 11.0134 19.0511 10.9767 18.9412 10.9195C16.9556 9.87289 14.8167 9.18162 12.5841 8.86406C10.3515 8.5465 8.10685 8.61389 5.91357 9.06521C5.34307 9.18264 4.78769 8.80892 4.67178 8.23201C4.55587 7.65407 4.92477 7.09145 5.49426 6.97403C7.9234 6.47471 10.407 6.40018 12.8774 6.75143C15.3479 7.10268 17.7146 7.8685 19.9139 9.02743C20.4299 9.29904 20.6305 9.94335 20.3624 10.4661V10.4651Z" fill="#2D2A26"/>
<path d="M32.107 17.3391C30.205 17.3391 28.5721 16.6723 27.8897 15.9147C27.8252 15.8401 27.8162 15.7993 27.8162 15.7084V13.4528C27.8162 13.3456 27.9059 13.3048 27.9784 13.3956C28.7989 14.4331 30.5467 15.2806 31.9769 15.2806C33.1149 15.2806 33.8789 14.9681 33.8789 13.947C33.8789 13.3374 33.5947 12.9423 32.0425 12.4981L31.1484 12.2428C29.0761 11.6506 27.8162 10.9501 27.8162 8.94166C27.8162 7.16395 29.441 5.59964 32.1554 5.59964C33.4879 5.59964 34.8123 6.01931 35.5763 6.59623C35.6408 6.64524 35.666 6.69527 35.666 6.78513V8.83547C35.666 8.97536 35.5521 9.0162 35.4463 8.92635C34.8284 8.40764 33.634 7.70819 32.2199 7.70819C30.8057 7.70819 30.1395 8.35045 30.1395 8.94269C30.1395 9.56861 30.5699 9.74118 32.106 10.2027L32.87 10.4335C35.2346 11.1493 36.2022 12.154 36.2022 13.8174C36.2022 15.9576 34.4474 17.3411 32.107 17.3411V17.3391ZM48.6765 13.0413C48.6765 11.7323 49.5706 10.7612 50.8305 10.7612C52.0904 10.7612 52.9754 11.7323 52.9754 13.0413C52.9754 14.3504 52.0814 15.3214 50.8305 15.3214C49.5796 15.3214 48.6765 14.3504 48.6765 13.0413ZM50.8214 17.3391C53.4461 17.3391 55.2745 15.4378 55.2745 13.0413C55.2745 10.6448 53.4461 8.74357 50.8214 8.74357C48.1967 8.74357 46.3764 10.6285 46.3764 13.0413C46.3764 15.4542 48.1887 17.3391 50.8214 17.3391ZM66.6683 8.25039V8.94166H65.2864C65.2128 8.94166 65.1725 8.98251 65.1725 9.05705V10.703C65.1725 10.7776 65.2128 10.8184 65.2864 10.8184H66.6683V17.0256C66.6683 17.1002 66.7086 17.141 66.7822 17.141H68.8626C68.9362 17.141 68.9765 17.1002 68.9765 17.0256V10.8184H70.7565L73.3409 16.5069L71.9509 19.6018C71.9106 19.6927 71.959 19.7335 72.0406 19.7335H74.2591C74.3327 19.7335 74.3649 19.7172 74.3972 19.6427L78.9884 9.07236C79.0206 8.99782 78.9803 8.94064 78.8987 8.94064H76.8183C76.7447 8.94064 76.7124 8.95698 76.6802 9.03152L74.5837 14.1359L72.4791 9.03152C72.4468 8.95698 72.4146 8.94064 72.341 8.94064H68.9765V8.39742C68.9765 7.50806 69.5702 7.09656 70.3332 7.09656C70.7878 7.09656 71.2837 7.33549 71.6334 7.5489C71.7151 7.59791 71.7715 7.54073 71.7393 7.46619L71.0075 5.69665C70.9833 5.63947 70.951 5.60577 70.8936 5.5731C70.5358 5.38419 69.9512 5.21878 69.3817 5.21878C67.6591 5.21878 66.6673 6.55232 66.6673 8.24835L66.6683 8.25039ZM42.1753 17.2891C44.2557 17.2891 45.7505 15.4695 45.7505 13.025C45.7505 10.5805 44.2386 8.79361 42.1582 8.79361C40.614 8.79361 39.72 9.74832 39.1999 10.703V9.05705C39.1999 8.98251 39.1595 8.94166 39.086 8.94166H37.0459C36.9723 8.94166 36.932 8.98251 36.932 9.05705V19.6192C36.932 19.6937 36.9723 19.7346 37.0459 19.7346H39.086C39.1595 19.7346 39.1999 19.6937 39.1999 19.6192V15.396C39.72 16.3507 40.5979 17.2891 42.1743 17.2891H42.1753ZM59.5331 17.2564C60.2155 17.2564 60.8736 17.0756 61.2637 16.8449C61.3202 16.8122 61.3282 16.7795 61.3282 16.7213V15.157C61.3282 15.0743 61.2879 15.0498 61.2143 15.0917C60.9785 15.2234 60.67 15.3306 60.2477 15.3306C59.5815 15.3306 59.1591 14.9354 59.1591 14.0624V10.8184H61.1911C61.2647 10.8184 61.305 10.7776 61.305 10.703V9.05705C61.305 8.98251 61.2647 8.94166 61.1911 8.94166H59.1591V6.7933C59.1591 6.70242 59.1027 6.65341 59.021 6.71876L55.3884 9.6166C55.34 9.65745 55.3239 9.69931 55.3239 9.76466V10.703C55.3239 10.7776 55.3642 10.8184 55.4378 10.8184H56.8519V14.4075C56.8519 16.3507 57.9567 17.2564 59.5341 17.2564H59.5331ZM61.8816 6.50535C61.8816 7.24666 62.4501 7.80621 63.2302 7.80621C64.0104 7.80621 64.595 7.24666 64.595 6.50535C64.595 5.76404 64.0265 5.20448 63.2302 5.20448C62.4339 5.20448 61.8816 5.76404 61.8816 6.50535ZM62.1981 17.142H64.2785C64.352 17.142 64.3924 17.1012 64.3924 17.0266V9.05807C64.3924 8.98353 64.352 8.94269 64.2785 8.94269H62.1981C62.1245 8.94269 62.0842 8.98353 62.0842 9.05807V17.0266C62.0842 17.1012 62.1245 17.142 62.1981 17.142ZM39.1515 13.0097C39.5254 11.7415 40.3862 10.7704 41.5564 10.7704C42.7266 10.7704 43.4413 11.6261 43.4413 13.026C43.4413 14.4259 42.6692 15.2979 41.5564 15.2979C40.4437 15.2979 39.5244 14.2115 39.1515 13.0097Z" fill="#2D2A26"/>
<path d="M81.6534 9.42566C81.5465 9.2388 81.3984 9.09279 81.2089 8.98659C81.0194 8.88142 80.8077 8.82832 80.5719 8.82832C80.336 8.82832 80.1243 8.88142 79.9348 8.98659C79.7454 9.09279 79.5972 9.2388 79.4903 9.42566C79.3835 9.61252 79.3301 9.82388 79.3301 10.0598C79.3301 10.2956 79.3835 10.5029 79.4903 10.6898C79.5972 10.8766 79.7454 11.0226 79.9348 11.1288C80.1243 11.235 80.336 11.2871 80.5719 11.2871C80.8077 11.2871 81.0194 11.234 81.2089 11.1288C81.3984 11.0237 81.5465 10.8766 81.6534 10.6898C81.7602 10.5029 81.8136 10.2936 81.8136 10.0598C81.8136 9.82593 81.7602 9.61252 81.6534 9.42566ZM81.4589 10.5856C81.3722 10.7408 81.2512 10.8613 81.097 10.9491C80.9428 11.0359 80.7674 11.0798 80.5729 11.0798C80.3783 11.0798 80.1979 11.0359 80.0437 10.9491C79.8895 10.8623 79.7695 10.7408 79.6839 10.5856C79.5982 10.4314 79.5559 10.2558 79.5559 10.0598C79.5559 9.86371 79.5982 9.6891 79.6839 9.53594C79.7695 9.38277 79.8895 9.26229 80.0437 9.17549C80.1979 9.0887 80.3743 9.04479 80.5729 9.04479C80.7714 9.04479 80.9428 9.0887 81.097 9.17549C81.2512 9.26229 81.3722 9.38379 81.4589 9.539C81.5455 9.69421 81.5889 9.86881 81.5889 10.0649C81.5889 10.2609 81.5455 10.4314 81.4589 10.5866V10.5856Z" fill="#2D2A26"/>
<path d="M80.9942 10.0363C81.0768 9.97501 81.1182 9.89332 81.1182 9.79223C81.1182 9.69114 81.0779 9.60537 80.9972 9.54411C80.9166 9.48284 80.7997 9.45221 80.6465 9.45221H80.1062V10.5958H80.3673V10.1414H80.5094L80.8531 10.5958H81.1736L80.7976 10.1139C80.8773 10.0986 80.9448 10.073 80.9952 10.0353L80.9942 10.0363ZM80.6051 9.93518H80.3673V9.65541H80.6142C80.6878 9.65541 80.7442 9.66664 80.7835 9.69012C80.8228 9.71361 80.843 9.74935 80.843 9.79836C80.843 9.84431 80.8218 9.87902 80.7815 9.90149C80.7402 9.92497 80.6817 9.9362 80.6051 9.9362V9.93518Z" fill="#2D2A26"/>
</svg>
