<svg id="visual" viewBox="0 0 900 600" width="900" height="600" xmlns="http://www.w3.org/2000/svg" xmlns:xlink="http://www.w3.org/1999/xlink" version="1.1"><path d="M0 175L16.7 175C33.3 175 66.7 175 100 173C133.3 171 166.7 167 200 164C233.3 161 266.7 159 300 156C333.3 153 366.7 149 400 148C433.3 147 466.7 149 500 142C533.3 135 566.7 119 600 113C633.3 107 666.7 111 700 122C733.3 133 766.7 151 800 150C833.3 149 866.7 129 883.3 119L900 109L900 0L883.3 0C866.7 0 833.3 0 800 0C766.7 0 733.3 0 700 0C666.7 0 633.3 0 600 0C566.7 0 533.3 0 500 0C466.7 0 433.3 0 400 0C366.7 0 333.3 0 300 0C266.7 0 233.3 0 200 0C166.7 0 133.3 0 100 0C66.7 0 33.3 0 16.7 0L0 0Z" fill="#613e3d"></path><path d="M0 217L16.7 216C33.3 215 66.7 213 100 211C133.3 209 166.7 207 200 210C233.3 213 266.7 221 300 225C333.3 229 366.7 229 400 230C433.3 231 466.7 233 500 222C533.3 211 566.7 187 600 181C633.3 175 666.7 187 700 204C733.3 221 766.7 243 800 245C833.3 247 866.7 229 883.3 220L900 211L900 107L883.3 117C866.7 127 833.3 147 800 148C766.7 149 733.3 131 700 120C666.7 109 633.3 105 600 111C566.7 117 533.3 133 500 140C466.7 147 433.3 145 400 146C366.7 147 333.3 151 300 154C266.7 157 233.3 159 200 162C166.7 165 133.3 169 100 171C66.7 173 33.3 173 16.7 173L0 173Z" fill="#4d2e2e"></path><path d="M0 379L16.7 374C33.3 369 66.7 359 100 360C133.3 361 166.7 373 200 375C233.3 377 266.7 369 300 379C333.3 389 366.7 417 400 417C433.3 417 466.7 389 500 387C533.3 385 566.7 409 600 426C633.3 443 666.7 453 700 453C733.3 453 766.7 443 800 436C833.3 429 866.7 425 883.3 423L900 421L900 209L883.3 218C866.7 227 833.3 245 800 243C766.7 241 733.3 219 700 202C666.7 185 633.3 173 600 179C566.7 185 533.3 209 500 220C466.7 231 433.3 229 400 228C366.7 227 333.3 227 300 223C266.7 219 233.3 211 200 208C166.7 205 133.3 207 100 209C66.7 211 33.3 213 16.7 214L0 215Z" fill="#391f1f"></path><path d="M0 553L16.7 544C33.3 535 66.7 517 100 517C133.3 517 166.7 535 200 537C233.3 539 266.7 525 300 526C333.3 527 366.7 543 400 541C433.3 539 466.7 519 500 513C533.3 507 566.7 515 600 520C633.3 525 666.7 527 700 533C733.3 539 766.7 549 800 552C833.3 555 866.7 551 883.3 549L900 547L900 419L883.3 421C866.7 423 833.3 427 800 434C766.7 441 733.3 451 700 451C666.7 451 633.3 441 600 424C566.7 407 533.3 383 500 385C466.7 387 433.3 415 400 415C366.7 415 333.3 387 300 377C266.7 367 233.3 375 200 373C166.7 371 133.3 359 100 358C66.7 357 33.3 367 16.7 372L0 377Z" fill="#321c1c"></path><path d="M0 601L16.7 601C33.3 601 66.7 601 100 601C133.3 601 166.7 601 200 601C233.3 601 266.7 601 300 601C333.3 601 366.7 601 400 601C433.3 601 466.7 601 500 601C533.3 601 566.7 601 600 601C633.3 601 666.7 601 700 601C733.3 601 766.7 601 800 601C833.3 601 866.7 601 883.3 601L900 601L900 545L883.3 547C866.7 549 833.3 553 800 550C766.7 547 733.3 537 700 531C666.7 525 633.3 523 600 518C566.7 513 533.3 505 500 511C466.7 517 433.3 537 400 539C366.7 541 333.3 525 300 524C266.7 523 233.3 537 200 535C166.7 533 133.3 515 100 515C66.7 515 33.3 533 16.7 542L0 551Z" fill="#2b1919"></path></svg>