<svg width="78" height="17" viewBox="0 0 78 17" fill="none" xmlns="http://www.w3.org/2000/svg">
<path d="M24.3544 2.64158C24.0678 1.60126 23.2262 0.78372 22.1553 0.505241C20.2162 1.51237e-07 12.4372 0 12.4372 0C12.4372 0 4.65834 1.51237e-07 2.71924 0.505241C1.64834 0.78372 0.806765 1.60126 0.520097 2.64158C1.55684e-07 4.52529 0 8.45781 0 8.45781C0 8.45781 1.55684e-07 12.3904 0.520097 14.2741C0.806765 15.3144 1.64834 16.1319 2.71924 16.4104C4.65834 16.9156 12.4372 16.9156 12.4372 16.9156C12.4372 16.9156 20.2162 16.9156 22.1553 16.4104C23.2262 16.1319 24.0678 15.3144 24.3544 14.2741C24.8746 12.3904 24.8746 8.45781 24.8746 8.45781C24.8746 8.45781 24.8725 4.52529 24.3544 2.64158Z" fill="#FF0000"/>
<path d="M9.94763 12.0821L16.4099 8.45797L9.94763 4.83374V12.0821Z" fill="white"/>
<path d="M30.1268 10.998L27.3339 1.19953H29.7705L30.7493 5.64127C30.9991 6.7353 31.1814 7.6682 31.3001 8.43999H31.3718C31.4537 7.88701 31.638 6.96007 31.9226 5.65719L32.9361 1.19953H35.3728L32.5451 10.998V15.6984H30.1248V10.998H30.1268Z" fill="#282828"/>
<path d="M36.1059 15.3877C35.6145 15.0655 35.2643 14.5642 35.0554 13.8839C34.8487 13.2037 34.7443 12.3006 34.7443 11.1707V9.6331C34.7443 8.49333 34.863 7.57637 35.1005 6.88614C35.338 6.19592 35.7087 5.69067 36.2124 5.3744C36.7161 5.05813 37.3775 4.89899 38.1966 4.89899C39.0033 4.89899 39.6483 5.06012 40.1356 5.38236C40.6209 5.70459 40.9772 6.20984 41.2024 6.8941C41.4276 7.58035 41.5403 8.49333 41.5403 9.6331V11.1707C41.5403 12.3006 41.4297 13.2076 41.2107 13.8919C40.9915 14.5781 40.6353 15.0794 40.1438 15.3957C39.6524 15.712 38.9849 15.8711 38.1433 15.8711C37.2751 15.873 36.5974 15.71 36.1059 15.3877ZM38.862 13.7288C38.9971 13.3827 39.0668 12.8198 39.0668 12.0361V8.73607C39.0668 7.97619 38.9992 7.41923 38.862 7.06914C38.7248 6.71707 38.4853 6.54203 38.1412 6.54203C37.8096 6.54203 37.5741 6.71707 37.4389 7.06914C37.3017 7.42122 37.2341 7.97619 37.2341 8.73607V12.0361C37.2341 12.8198 37.2996 13.3847 37.4307 13.7288C37.5618 14.0749 37.7972 14.2479 38.1412 14.2479C38.4853 14.2479 38.7248 14.0749 38.862 13.7288Z" fill="#282828"/>
<path d="M49.4666 15.7004H47.5459L47.333 14.4035H47.2798C46.7575 15.3821 45.9753 15.8714 44.9311 15.8714C44.2083 15.8714 43.6739 15.6407 43.3299 15.1813C42.9859 14.7197 42.8138 13.9997 42.8138 13.0211V5.10624H45.269V12.8818C45.269 13.3552 45.3222 13.6913 45.4287 13.8923C45.5351 14.0932 45.7133 14.1946 45.9631 14.1946C46.176 14.1946 46.3808 14.131 46.5774 14.0037C46.774 13.8763 46.9173 13.7152 47.0135 13.5203V5.10426H49.4666V15.7004Z" fill="#282828"/>
<path d="M56.1358 3.11872H53.6991V15.7H51.2973V3.11872H48.8606V1.20119H56.1358V3.11872Z" fill="#282828"/>
<path d="M62.0574 15.7004H60.1367L59.9238 14.4035H59.8706C59.3484 15.3821 58.5663 15.8714 57.5219 15.8714C56.7991 15.8714 56.2647 15.6407 55.9207 15.1813C55.5767 14.7197 55.4047 13.9997 55.4047 13.0211V5.10624H57.8598V12.8818C57.8598 13.3552 57.913 13.6913 58.0195 13.8923C58.126 14.0932 58.3041 14.1946 58.554 14.1946C58.7669 14.1946 58.9716 14.131 59.1682 14.0037C59.3648 13.8763 59.5081 13.7152 59.6043 13.5203V5.10426H62.0574V15.7004Z" fill="#282828"/>
<path d="M70.1825 6.7988C70.033 6.13046 69.7934 5.6471 69.4618 5.34673C69.1301 5.04638 68.6734 4.89719 68.0919 4.89719C67.6414 4.89719 67.2196 5.02052 66.8285 5.26916C66.4374 5.5178 66.1343 5.84203 65.9214 6.24582H65.903V0.664307H63.538V15.6982H65.5651L65.8149 14.6957H65.8682C66.0586 15.0537 66.3432 15.3342 66.722 15.5431C67.1008 15.75 67.5227 15.8534 67.9854 15.8534C68.8147 15.8534 69.427 15.4814 69.818 14.7394C70.2091 13.9955 70.4057 12.8358 70.4057 11.2565V9.57965C70.4057 8.39608 70.3299 7.46716 70.1825 6.7988ZM67.9321 11.1212C67.9321 11.8929 67.8994 12.4977 67.8338 12.9353C67.7684 13.3729 67.6598 13.6852 67.5042 13.8682C67.3506 14.0532 67.1418 14.1447 66.8817 14.1447C66.679 14.1447 66.4927 14.0989 66.3206 14.0055C66.1487 13.9139 66.0095 13.7747 65.903 13.5917V7.57855C65.9848 7.29012 66.1282 7.05541 66.3309 6.87042C66.5316 6.68543 66.7528 6.59392 66.9882 6.59392C67.2381 6.59392 67.4305 6.6894 67.5657 6.87838C67.7028 7.06933 67.797 7.3876 67.8503 7.83714C67.9035 8.28668 67.9301 8.92518 67.9301 9.75464V11.1212H67.9321Z" fill="#282828"/>
<path d="M73.8885 11.7318C73.8885 12.4121 73.909 12.9213 73.95 13.2615C73.9909 13.6016 74.077 13.8483 74.208 14.0055C74.339 14.1606 74.5397 14.2381 74.812 14.2381C75.1786 14.2381 75.4325 14.0989 75.5676 13.8224C75.7048 13.546 75.7786 13.0845 75.7908 12.44L77.9081 12.5613C77.9204 12.6528 77.9264 12.7801 77.9264 12.9412C77.9264 13.9199 77.65 14.6519 77.0992 15.1353C76.5485 15.6186 75.7683 15.8613 74.7608 15.8613C73.5507 15.8613 72.703 15.4933 72.2177 14.7553C71.7304 14.0174 71.4888 12.8776 71.4888 11.334V9.48408C71.4888 7.89479 71.7407 6.73314 72.2443 6.00114C72.7481 5.26913 73.6101 4.90313 74.8325 4.90313C75.6741 4.90313 76.3211 5.05232 76.7716 5.35268C77.2221 5.65303 77.5394 6.11849 77.7238 6.75303C77.9081 7.38756 78.0002 8.26278 78.0002 9.38065V11.1948H73.8885V11.7318ZM74.1998 6.73911C74.0749 6.88829 73.993 7.13296 73.95 7.4731C73.909 7.81324 73.8885 8.32843 73.8885 9.02068V9.78053H75.6843V9.02068C75.6843 8.34036 75.6598 7.82518 75.6127 7.4731C75.5656 7.12102 75.4796 6.87437 75.3546 6.72916C75.2298 6.58595 75.0373 6.51235 74.7772 6.51235C74.5152 6.51433 74.3226 6.58992 74.1998 6.73911Z" fill="#282828"/>
</svg>
