<svg width="137" height="64" viewBox="0 0 137 64" fill="none" xmlns="http://www.w3.org/2000/svg">
<g clip-path="url(#clip0_211_151)">
<path opacity="0.09" d="M82 2L88.9282 16.25H75.0718L82 2Z" fill="#D9D9D9"/>
<path opacity="0.17" d="M37 -10L73.3731 64.25H0.626934L37 -10Z" fill="#D9D9D9"/>
<path opacity="0.13" d="M81.8516 50.25H66.5146L53.876 24.4512L61.5 9L81.8516 50.25Z" fill="#D9D9D9"/>
<path opacity="0.17" d="M102 2L116.722 32H87.2776L102 2Z" fill="#D9D9D9"/>
<path opacity="0.09" d="M88.3604 29.791L87.2773 32H89.4443L93.8613 41H79.1387L86.5 26L88.3604 29.791Z" fill="#D9D9D9"/>
<path opacity="0.17" d="M128.5 20L135.861 35H121.139L128.5 20Z" fill="#D9D9D9"/>
<path opacity="0.1" d="M122.24 32.7539L121.139 35H123.343L129.723 48H100.277L108.13 32H116.723L112.426 23.2441L115 18L122.24 32.7539Z" fill="#D9D9D9"/>
</g>
<defs>
<clipPath id="clip0_211_151">
<rect width="137" height="64" fill="white"/>
</clipPath>
</defs>
</svg>
