<svg width="137" height="74" viewBox="0 0 137 74" fill="none" xmlns="http://www.w3.org/2000/svg">
<g clip-path="url(#clip0_211_151)">
<path opacity="0.09" d="M82 12L88.9282 26.25H75.0718L82 12Z" fill="#D9D9D9"/>
<path opacity="0.17" d="M37 0L73.3731 74.25H0.626934L37 0Z" fill="#D9D9D9"/>
<path opacity="0.13" d="M81.8516 60.25H66.5146L53.876 34.4512L61.5 19L81.8516 60.25Z" fill="#D9D9D9"/>
<path opacity="0.17" d="M102 12L116.722 42H87.2776L102 12Z" fill="#D9D9D9"/>
<path opacity="0.09" d="M88.3604 39.791L87.2773 42H89.4443L93.8613 51H79.1387L86.5 36L88.3604 39.791Z" fill="#D9D9D9"/>
<path opacity="0.17" d="M128.5 30L135.861 45H121.139L128.5 30Z" fill="#D9D9D9"/>
<path opacity="0.1" d="M122.24 42.7539L121.139 45H123.343L129.723 58H100.277L108.13 42H116.723L112.426 33.2441L115 28L122.24 42.7539Z" fill="#D9D9D9"/>
</g>
<defs>
<clipPath id="clip0_211_151">
<rect width="137" height="74" fill="white"/>
</clipPath>
</defs>
</svg>
